# xmcd
#
# Track frame offsets: 
#        150
#        17337
#        33112
#        57125
#        72585
#        96500
#        107375
#        123885
#        139447
#        158010
#        174200
#        197272
#        207262
#
# Disc length: 2945 seconds
#
# Revision: 0
# Processed by: cddbd v1.5.2PL0 Copyright (c) Steve Scherf et al.
# Submitted via: ExactAudioCopyFreeDBPlugin 1.0
#
DISCID=a20b7f0d
DTITLE=Guilty - Another shot
DYEAR=2002
DGENRE=
TTITLE0=Unknown Artist - She''ll be so fine
TTITLE1=Unknown Artist - Maybe someday baby
TTITLE2=Unknown Artist - New coat of paint
TTITLE3=Unknown Artist - Before you accuse me
TTITLE4=Unknown Artist - Angel for Montgomery
TTITLE5=Unknown Artist - Farmer John
TTITLE6=Unknown Artist - I just want to make love to you
TTITLE7=Unknown Artist - Without a friend like you
TTITLE8=Unknown Artist - Not fade away
TTITLE9=Unknown Artist - The real thing
TTITLE10=Unknown Artist - Bad to be alone
TTITLE11=Unknown Artist - Prince of temptation
TTITLE12=Unknown Artist - En route
EXTD=
EXTT0=
EXTT1=
EXTT2=
EXTT3=
EXTT4=
EXTT5=
EXTT6=
EXTT7=
EXTT8=
EXTT9=
EXTT10=
EXTT11=
EXTT12=
PLAYORDER=
